<svg width="500" height="500" viewBox="0 0 500 500" fill="none" xmlns="http://www.w3.org/2000/svg">
<path d="M12.1599 406H473.19" stroke="#263238" stroke-miterlimit="10"/>
<path opacity="0.2" d="M385.47 49.2002C383.05 49.2002 381.02 50.7702 380.29 52.9402H111.61C110.87 50.7702 108.84 49.2002 106.43 49.2002C103.39 49.2002 100.93 51.6602 100.93 54.7002C100.93 57.7402 103.39 60.2002 106.43 60.2002C108.85 60.2002 110.88 58.6302 111.61 56.4602H380.28C381.02 58.6302 383.05 60.2002 385.46 60.2002C388.5 60.2002 390.96 57.7402 390.96 54.7002C390.96 51.6602 388.5 49.2002 385.46 49.2002H385.47Z" fill="black"/>
<g opacity="0.2">
<path d="M175.16 57.4502C178.99 150.6 182.34 244.63 186.35 337.44L185.95 355.63C185.95 355.63 168.73 355.63 159.67 356.54C150.61 357.45 136.56 357.45 126.59 357.45C116.62 357.45 111.18 353.82 111.18 353.82L111.83 337.42C113.84 244.66 116.01 150.62 117.43 57.4602" stroke="black" stroke-linejoin="round"/>
<path d="M132.23 322.04L132.18 333" stroke="black" stroke-linejoin="round"/>
<path d="M133.17 108.35L132.27 312.3" stroke="black" stroke-linejoin="round"/>
<path d="M133.4 55.3901L133.19 102.27" stroke="black" stroke-linejoin="round"/>
<path d="M148.85 162.52L146.79 298.3" stroke="black" stroke-linejoin="round"/>
<path d="M150.45 56.6001L148.97 154.03" stroke="black" stroke-linejoin="round"/>
<path d="M163.27 200.28L163.84 326.31" stroke="black" stroke-linejoin="round"/>
<path d="M162.86 110.79L163.22 189.94" stroke="black" stroke-linejoin="round"/>
<path d="M162.62 57.8203L162.82 101.05" stroke="black" stroke-linejoin="round"/>
</g>
<g opacity="0.2">
<path d="M314.16 57.4502C310.48 156.07 305.79 255.69 302.26 353.79C302.26 353.79 313.99 355.56 321.53 355.56H360.02C368.32 355.56 377.84 353.72 377.84 353.72C376.1 255.69 374.93 156.07 371.89 57.4502" stroke="black" stroke-linejoin="round"/>
<path d="M357.09 322.04L357.13 333" stroke="black" stroke-linejoin="round"/>
<path d="M356.15 108.35L357.04 312.3" stroke="black" stroke-linejoin="round"/>
<path d="M355.92 55.3901L356.12 102.27" stroke="black" stroke-linejoin="round"/>
<path d="M340.47 162.52L342.52 298.3" stroke="black" stroke-linejoin="round"/>
<path d="M338.87 56.6001L340.34 154.03" stroke="black" stroke-linejoin="round"/>
<path d="M326.05 200.28L325.47 326.31" stroke="black" stroke-linejoin="round"/>
<path d="M326.45 110.79L326.09 189.94" stroke="black" stroke-linejoin="round"/>
<path d="M326.69 57.8203L326.5 101.05" stroke="black" stroke-linejoin="round"/>
</g>
<g opacity="0.2">
<path d="M176.87 83.9204H203.91V115.46H178.67" stroke="black" stroke-linejoin="round"/>
<path d="M236.88 84.0005H208.62V115.64H236.88V84.0005Z" stroke="black" stroke-linejoin="round"/>
</g>
<g opacity="0.2">
<path d="M312.81 83.9204H285.77V115.46H311.01" stroke="black" stroke-linejoin="round"/>
<path d="M252.8 115.63H281.06V83.9904H252.8V115.63Z" stroke="black" stroke-linejoin="round"/>
</g>
<path opacity="0.2" d="M181.33 227.26H237.61V132.69H178.86" stroke="black" stroke-linejoin="round"/>
<path opacity="0.2" d="M309.96 131.89H252.45V227.26H305.63" stroke="black" stroke-linejoin="round"/>
<path opacity="0.2" d="M183.19 249.7H237.61V344.77H187.31" stroke="black" stroke-linejoin="round"/>
<path opacity="0.2" d="M306.25 248.9H252.45V345.65H301.5" stroke="black" stroke-linejoin="round"/>
<path opacity="0.2" d="M187.06 351.69H302.26" stroke="black" stroke-linejoin="round"/>
<path opacity="0.2" d="M176.64 72.9702H312.75" stroke="black" stroke-linejoin="round"/>
<path opacity="0.2" d="M245.02 73.6201V350.39" stroke="black" stroke-linejoin="round"/>
<path opacity="0.2" d="M178.37 125.37H310.76" stroke="black" stroke-linejoin="round"/>
<path d="M247.33 222.71C244.29 217.06 231.91 217.14 231.91 217.14C231.91 217.14 238.64 223.15 239.5 227.06" stroke="#263238" stroke-miterlimit="10"/>
<path d="M206.09 168.75C206.09 168.75 201.2 160.87 193.31 158.96C185.43 157.06 168.84 164.4 154.44 179.08C140.03 193.76 143.57 200.83 145.2 204.91C146.83 208.99 148.19 214.15 148.19 214.15C148.19 214.15 139.76 210.89 134.87 214.69C129.98 218.49 137.32 229.64 138.4 230.73C139.49 231.82 131.06 235.62 130.24 236.44C129.42 237.26 123.72 242.96 126.98 248.13C130.24 253.3 144.92 261.18 144.92 261.99C144.92 262.8 142.2 269.33 146.28 272.05C150.36 274.77 157.43 275.31 160.14 274.77C162.85 274.23 180.26 277.76 182.16 262.81C184.06 247.86 178.63 223.66 178.63 223.66L217.23 198.38L231.91 217.14C231.91 217.14 242.07 215.71 245.33 210.81C248.59 205.92 245.77 190.22 238.43 184.52C231.09 178.82 230.27 184.25 230.27 184.25C230.27 184.25 230.54 173.92 221.03 168.21C211.52 162.5 206.08 168.75 206.08 168.75H206.09Z" fill="#263238" stroke="#263238" stroke-miterlimit="10"/>
<path d="M130.52 205.18C136.77 204.91 148.19 214.15 148.19 214.15C148.19 214.15 136.5 210.07 131.88 212.79C127.26 215.51 128.07 219.86 128.07 219.86" stroke="#263238" stroke-miterlimit="10"/>
<path d="M174.29 252.75C174.29 252.75 177.01 257.91 174.83 263.08C172.66 268.25 171.02 267.43 161.24 271.78C151.45 276.13 122.64 286.46 117.75 295.43C112.86 304.4 109.32 320.71 110.14 336.21C110.96 351.71 121.01 402 123.19 404.17C125.36 406.34 128.35 406.07 128.35 406.07H296.62C296.62 406.07 306.13 404.17 306.68 389.76C307.23 375.35 302.87 362.03 299.07 354.69C295.26 347.35 289.28 329.41 282.76 313.37C276.24 297.33 274.6 284.83 265.91 278.3C257.21 271.78 241.99 268.79 241.99 268.79L222.42 263.62L219.7 261.17L174.3 252.74L174.29 252.75Z" fill="#45FFCA" stroke="#263238" stroke-miterlimit="10"/>
<path d="M260.22 398.23C260.22 398.23 259.82 399.85 263.05 400.46C266.29 401.07 269.12 403.09 273.37 402.08C277.62 401.07 281.46 398.03 281.66 388.33C281.86 378.62 279.64 374.58 275.39 372.35C271.14 370.12 262.44 373.56 261.43 374.58C260.42 375.6 259.61 378.22 259.81 380.65C260.01 383.08 260.21 398.25 260.21 398.25L260.22 398.23Z" fill="#45FFCA" stroke="#263238" stroke-miterlimit="10"/>
<path d="M263.25 372.54C263.25 372.54 270.73 367.89 272.55 364.85C274.37 361.82 287.72 359.39 293.38 363.03C299.04 366.67 299.45 370.31 300.26 372.13" stroke="#263238" stroke-miterlimit="10"/>
<path d="M263.05 400.46C263.05 400.46 270.33 405.72 280.45 406.12" stroke="#263238" stroke-miterlimit="10"/>
<path d="M279.18 359.77C279.18 359.77 289.23 356.42 295.94 360.33" stroke="#263238" stroke-miterlimit="10"/>
<path d="M301.25 375.13C301.25 375.13 301.81 377.36 301.53 380.72" stroke="#263238" stroke-miterlimit="10"/>
<path d="M209.35 367.81C210.67 360.66 210.67 317.5 210.67 317.5C210.67 317.5 212.26 346.36 219.41 360.66" fill="#263238"/>
<path d="M209.35 367.81C210.67 360.66 210.67 317.5 210.67 317.5C210.67 317.5 212.26 346.36 219.41 360.66" stroke="#263238" stroke-miterlimit="10"/>
<path d="M261.73 321.4C264.3 332.27 267.74 349.38 267.07 360.4" stroke="#263238" stroke-miterlimit="10"/>
<path d="M259.12 311.15C259.12 311.15 259.66 313.09 260.47 316.27" stroke="#263238" stroke-miterlimit="10"/>
<path d="M161.24 271.78C160.82 271.97 160.35 272.17 159.85 272.38C162.57 277.59 169.7 289.27 183.53 300.05C202.02 314.46 210.67 317.5 210.67 317.5C214.48 315.33 231.92 280.2 233.28 269.87C233.44 268.69 233.58 267.61 233.72 266.6L222.4 263.61L219.68 261.16L174.28 252.73C174.28 252.73 177 257.89 174.82 263.06C172.65 268.23 171.01 267.41 161.23 271.76L161.24 271.78Z" fill="white" stroke="#263238" stroke-miterlimit="10"/>
<path d="M176.25 286.82L198.04 290.69C198.04 290.69 202.88 293.11 203.85 296.02" stroke="#263238" stroke-miterlimit="10"/>
<path d="M226.05 267.32C226.05 267.32 222.31 293.16 217.55 303.37C212.79 313.57 209.92 320.07 210.68 317.5C211.43 314.93 226.24 296.23 233.29 269.87L226.06 267.32H226.05Z" fill="#263238" stroke="#263238" stroke-miterlimit="10"/>
<path d="M220.23 263.35C220.23 263.35 219.09 271.37 223 277.46" stroke="#263238" stroke-miterlimit="10"/>
<path d="M229.74 241.33C229.74 241.33 244.15 238.34 246.87 243.23C249.59 248.12 246.05 257.64 246.05 258.73C246.05 259.82 262.63 260.9 264.81 269.06C266.98 277.22 256.93 284.83 252.58 287.82C248.23 290.81 256.11 295.16 246.87 297.61C237.63 300.06 244.42 290 244.42 290C244.42 290 235.45 296.25 232.19 286.47C228.93 276.69 233.82 270.7 233.28 269.89C232.74 269.07 221.05 267.72 220.23 263.37C219.41 259.02 228.93 247.87 229.74 241.35V241.33Z" fill="#263238" stroke="#263238" stroke-miterlimit="10"/>
<path d="M169.39 285.92L204.73 269.34L176.19 257.65C176.19 257.65 175.1 262.27 174.02 265.26C172.94 268.25 161.24 271.78 161.24 271.78C161.24 271.78 160.97 277.22 169.4 285.92H169.39Z" fill="#263238" stroke="#263238" stroke-miterlimit="10"/>
<path d="M217.24 192.13C217.24 192.13 221.83 198.08 229.74 205.99C231.37 207.62 233 209.52 233 209.52C233 209.52 230.26 213.99 229.67 223.36C229.16 231.47 232.75 237.24 229.74 248.67C227.23 258.17 215.33 269.87 211.25 272.59C207.17 275.31 200.65 273.68 196.3 271.77C191.95 269.87 183.52 266.19 180.41 263.55C171.99 256.36 164.49 235.07 163.67 229.91C162.85 224.74 162.58 217.95 162.58 217.95C162.58 217.95 168.29 217.95 183.51 211.15C198.73 204.35 217.22 192.12 217.22 192.12L217.24 192.13Z" fill="white" stroke="#263238" stroke-miterlimit="10"/>
<path d="M213.27 191.69C213.27 191.69 205.65 201.11 191.1 210.37C176.55 219.63 167.29 214.34 167.29 214.34C167.29 214.34 179.2 221.84 191.1 217.87C203.01 213.9 218.88 191.41 218.88 191.41L213.27 191.69Z" fill="#263238" stroke="#263238" stroke-miterlimit="10"/>
<path d="M197.79 232.7C197.79 232.7 197.4 234.24 193.36 235.97Z" fill="white"/>
<path d="M197.79 232.7C197.79 232.7 197.4 234.24 193.36 235.97" stroke="#263238" stroke-miterlimit="10"/>
<path d="M216.09 232.31C216.09 232.31 217.25 233.47 221.48 234.81Z" fill="white"/>
<path d="M216.09 232.31C216.09 232.31 217.25 233.47 221.48 234.81" stroke="#263238" stroke-miterlimit="10"/>
<path d="M174.34 212.72C174.34 212.72 173.04 229.23 169.56 231.4C166.08 233.57 159.13 218.37 159.13 218.37L171.73 204.9L174.34 212.72Z" fill="#263238" stroke="#263238" stroke-miterlimit="10"/>
<path d="M198.63 212.9C198.63 212.9 185.62 221.28 184.91 222.87C184.19 224.46 187.75 222.99 190.57 221.98C193.4 220.97 202.35 217.56 202.6 215.25C202.85 212.94 201.39 211.63 198.63 212.9Z" fill="#263238"/>
<path d="M211.8 214.69C211.8 214.69 209.35 217.41 211.26 218.22C213.17 219.03 222.68 222.03 224.31 221.21C225.94 220.39 220.23 217.13 217.79 215.77C215.34 214.41 213.98 212.51 211.81 214.68L211.8 214.69Z" fill="#263238"/>
<path d="M206.74 247.15C206.74 247.15 213.26 245.79 212.72 242.8C212.18 239.81 208.64 234.1 208.64 234.1L208.91 220.51" fill="white"/>
<path d="M206.74 247.15C206.74 247.15 213.26 245.79 212.72 242.8C212.18 239.81 208.64 234.1 208.64 234.1L208.91 220.51" stroke="#263238" stroke-miterlimit="10"/>
<path d="M206.07 245.61C206.07 245.61 204.14 247.15 202.41 247.15C200.68 247.15 200.48 245.42 200.87 244.26" fill="white"/>
<path d="M206.07 245.61C206.07 245.61 204.14 247.15 202.41 247.15C200.68 247.15 200.48 245.42 200.87 244.26" stroke="#263238" stroke-miterlimit="10"/>
<path d="M202.01 254.93C202.01 254.93 206.9 252.48 209.62 253.84" stroke="#263238" stroke-miterlimit="10"/>
<path d="M221.72 228.83C221.72 230.86 220.93 232.5 219.95 232.5C218.97 232.5 218.18 230.86 218.18 228.83C218.18 226.8 218.97 225.16 219.95 225.16C220.93 225.16 221.72 226.8 221.72 228.83Z" fill="#263238"/>
<path d="M197.26 229.37C197.26 231.4 196.47 233.04 195.49 233.04C194.51 233.04 193.72 231.4 193.72 229.37C193.72 227.34 194.51 225.7 195.49 225.7C196.47 225.7 197.26 227.34 197.26 229.37Z" fill="#263238"/>
<path d="M156.07 245.95C156.07 245.95 161.51 239.43 165.04 239.15C168.57 238.88 168.85 240.78 168.85 242.41C168.85 244.04 160.97 248.39 159.61 252.74C158.25 257.09 158.25 259.26 156.35 262.8C154.45 266.33 151.19 269.32 151.19 269.32C151.19 269.32 152.28 251.11 156.08 245.94L156.07 245.95Z" fill="white" stroke="#263238" stroke-miterlimit="10"/>
<path d="M131.34 283.47C131.34 283.47 137.59 258.19 137.59 257.37C137.59 256.55 143.03 223.93 143.03 223.93C143.03 223.93 156.35 213.33 157.44 211.97C158.53 210.61 160.16 206.81 162.33 208.16C164.5 209.52 163.69 215.5 163.69 215.5C163.69 215.5 165.86 216.86 165.86 219.58C165.86 222.3 164.77 226.92 163.69 229.91C162.6 232.9 156.08 245.95 156.08 245.95C156.08 245.95 153.63 260.63 152.55 265.25C151.47 269.87 146.84 277.21 146.84 277.21L146.02 282.92L131.34 283.46V283.47Z" fill="white" stroke="#263238" stroke-miterlimit="10"/>
<path d="M163.68 215.51C163.68 215.51 160.69 222.03 160.15 223.67C159.61 225.3 153.9 229.65 153.08 232.91C152.26 236.17 149 243.51 149 243.51" stroke="#263238" stroke-miterlimit="10"/>
<path d="M157.43 211.97C157.43 211.97 155.53 220.4 154.71 221.48C153.89 222.57 148.19 229.91 147.37 232.35C146.55 234.8 144.11 239.69 144.11 239.69" stroke="#263238" stroke-miterlimit="10"/>
<path d="M153.08 223.39L148.19 228.01" stroke="#263238" stroke-miterlimit="10"/>
<path d="M123.89 279.93C123.89 279.93 120.18 296.48 121.91 298.21C123.64 299.94 150.32 301.67 151.06 301.67C151.8 301.67 153.78 284.38 153.04 281.41C152.3 278.45 141.18 277.7 136.24 277.7C131.3 277.7 125.12 277.21 123.89 279.92V279.93Z" fill="#45FFCA" stroke="#263238" stroke-miterlimit="10"/>
<path d="M121.91 298.21C121.91 298.21 119.44 306.61 119.44 312.04C119.44 317.47 114 354.78 111.29 373.31C108.57 391.84 111.29 399 116.73 403.45C122.16 407.9 130.56 410.86 136.49 409.63C142.42 408.39 150.08 408.64 154.28 400.24C158.48 391.84 159.72 375.54 157.24 363.18C154.77 350.83 151.06 301.66 151.06 301.66L121.91 298.2V298.21Z" fill="#45FFCA" stroke="#263238" stroke-miterlimit="10"/>
<path d="M263.46 377.8C263.46 377.8 270.94 379.01 272.36 382.86C273.78 386.7 272.56 390.95 268.11 394.59C263.66 398.23 254.36 401.27 253.14 401.27C251.92 401.27 254.76 386.3 257.19 382.66C259.62 379.02 263.46 377.81 263.46 377.81V377.8Z" fill="white" stroke="#263238" stroke-miterlimit="10"/>
<path d="M179.69 359.6C179.69 359.6 174.47 368.36 175.19 379.19C176.02 391.74 179.43 412.02 179.43 412.02C179.43 412.02 217.82 405.67 234.77 402.22C251.72 398.78 254.89 398.25 254.89 398.25C254.89 398.25 257.01 383.16 261.24 376.54L265.48 369.92C265.48 369.92 262.04 351.65 253.3 349.53C244.56 347.41 179.69 359.59 179.69 359.59V359.6Z" fill="#D4D4D4" stroke="#263238" stroke-miterlimit="10"/>
<path d="M240.8 393.99C240.8 393.99 243.43 398.64 247.07 401.07C250.71 403.5 254.55 400.26 254.55 400.26L240.8 393.99Z" fill="white" stroke="#263238" stroke-miterlimit="10"/>
<path d="M239.18 386.5C239.18 386.5 238.37 391.35 239.58 392.57C240.79 393.78 250.91 401.27 254.55 400.26C258.19 399.25 259.61 396.01 259.2 394.6C258.8 393.18 239.17 386.51 239.17 386.51L239.18 386.5Z" fill="white" stroke="#263238" stroke-miterlimit="10"/>
<path d="M239.79 383.67C239.79 383.67 237.97 384.28 239.18 386.5C240.39 388.73 251.92 394.19 255.36 394.59C258.8 394.99 260.62 393.78 261.63 390.75C262.64 387.72 264.06 386.7 262.84 386.1C261.63 385.49 239.78 383.67 239.78 383.67H239.79Z" fill="white" stroke="#263238" stroke-miterlimit="10"/>
<path d="M239.79 383.67C239.79 383.67 257.59 387.51 261.43 387.51C265.27 387.51 267.09 383.46 267.5 381.24C267.9 379.01 268.92 377.8 263.45 377.8C257.98 377.8 243.42 379.22 241 379.82C238.57 380.43 237.16 381.84 239.79 383.66V383.67Z" fill="white" stroke="#263238" stroke-miterlimit="10"/>
<path d="M202.46 391.64C202.46 391.64 259.12 379.2 275.8 378.93C275.8 378.93 263.09 348.48 259.38 345.3C255.67 342.12 205.89 352.64 192.67 355.72C179.65 358.76 179.6 359.14 179.68 359.59C179.68 359.59 195.83 372.3 202.45 391.63L202.46 391.64Z" fill="white" stroke="#263238" stroke-miterlimit="10"/>
<path d="M250.9 359.56L255.43 372.82L252.05 373.38C251.44 373.48 250.87 373.52 250.34 373.49C249.81 373.46 249.32 373.35 248.88 373.15C248.44 372.95 248.04 372.65 247.7 372.25C247.36 371.84 247.07 371.31 246.85 370.64C246.67 370.1 246.59 369.63 246.61 369.23C246.63 368.82 246.75 368.48 246.97 368.21C247.19 367.94 247.51 367.73 247.92 367.58C247.35 367.58 246.83 367.47 246.38 367.25C245.93 367.03 245.54 366.71 245.21 366.29C244.88 365.87 244.61 365.35 244.39 364.71C244.17 364.08 244.06 363.5 244.06 362.99C244.06 362.48 244.16 362.03 244.38 361.66C244.59 361.29 244.91 360.98 245.34 360.73C245.77 360.49 246.3 360.31 246.95 360.21L250.91 359.56H250.9ZM251.06 367.81L250.21 367.95C249.71 368.03 249.35 368.17 249.13 368.35C248.91 368.54 248.79 368.79 248.78 369.1C248.78 369.41 248.85 369.79 249 370.24C249.16 370.71 249.37 371.06 249.62 371.29C249.87 371.52 250.18 371.65 250.54 371.69C250.9 371.73 251.34 371.71 251.85 371.62L252.34 371.54L251.06 367.81ZM248.96 361.67L248.01 361.83C247.25 361.95 246.79 362.22 246.64 362.62C246.49 363.02 246.54 363.59 246.79 364.33C246.97 364.86 247.19 365.29 247.43 365.6C247.67 365.91 247.97 366.12 248.33 366.24C248.69 366.35 249.11 366.37 249.61 366.29L250.48 366.15L248.95 361.68L248.96 361.67Z" fill="black"/>
<path d="M241.35 361.12L245.88 374.38L243.4 374.79L238.87 361.53L241.35 361.12Z" fill="black"/>
<path d="M236.74 361.88L241.27 375.14L238.75 375.55L234.79 363.96L231.46 364.51L230.89 362.84L236.74 361.88Z" fill="black"/>
<path d="M229.65 363.04L234.18 376.3L231.66 376.71L227.7 365.12L224.37 365.67L223.8 364L229.65 363.04Z" fill="black"/>
<path d="M219.03 364.59C219.86 364.45 220.6 364.5 221.26 364.72C221.92 364.94 222.5 365.33 222.99 365.88C223.48 366.43 223.89 367.14 224.22 368.01L222.2 368.77C222 368.26 221.78 367.82 221.54 367.44C221.3 367.06 221.03 366.79 220.74 366.61C220.45 366.43 220.12 366.37 219.75 366.43C219.34 366.5 219.09 366.66 219 366.92C218.91 367.18 218.93 367.49 219.05 367.85C219.25 368.43 219.55 368.88 219.95 369.21C220.35 369.54 220.84 369.85 221.42 370.14L223.66 371.33C224.29 371.65 224.83 372.04 225.29 372.49C225.75 372.94 226.1 373.53 226.35 374.26C226.71 375.31 226.67 376.17 226.23 376.84C225.79 377.51 225.02 377.94 223.92 378.12C223.27 378.23 222.7 378.22 222.21 378.1C221.71 377.98 221.28 377.77 220.91 377.48C220.54 377.18 220.22 376.83 219.95 376.42C219.68 376.01 219.44 375.57 219.24 375.09L221.26 374.38C221.42 374.79 221.6 375.15 221.79 375.47C221.98 375.78 222.19 376.02 222.44 376.18C222.69 376.33 223 376.38 223.36 376.32C223.73 376.26 223.98 376.09 224.1 375.83C224.22 375.56 224.22 375.25 224.1 374.91C223.95 374.46 223.72 374.11 223.43 373.85C223.14 373.59 222.76 373.34 222.29 373.09L220.07 371.91C219.35 371.54 218.68 371.09 218.06 370.54C217.45 369.99 216.99 369.28 216.69 368.4C216.47 367.77 216.43 367.18 216.55 366.64C216.67 366.1 216.94 365.65 217.36 365.29C217.78 364.93 218.34 364.69 219.03 364.58V364.59Z" fill="black"/>
<path d="M199 364.64L258.82 353.87" stroke="#263238" stroke-miterlimit="10"/>
<path d="M248.41 348.29L252.38 355.38" stroke="#263238" stroke-miterlimit="10"/>
<path d="M227.98 351.27L232.44 358.15" stroke="#263238" stroke-miterlimit="10"/>
<path d="M202.34 356.84L205.31 361.3" stroke="#263238" stroke-miterlimit="10"/>
<path d="M195.95 360.49L255.77 349.71" stroke="#263238" stroke-miterlimit="10"/>
<path d="M292.24 407.37L238.57 427.55L315.82 453.39L365.35 423.54L292.24 407.37Z" fill="white" stroke="#263238" stroke-miterlimit="10"/>
<path d="M292.92 418.71L304.88 413.04L354.91 424.6L315.48 446.85L291.56 440.34" stroke="#263238" stroke-miterlimit="10"/>
<path d="M299.46 415.56L346.85 427.74" stroke="#263238" stroke-miterlimit="10"/>
<path d="M344.36 422.7L306.68 444.12" stroke="#263238" stroke-miterlimit="10"/>
<path d="M241.98 407.62L181.88 423.31L252.35 454.09L317.1 426.8L241.98 407.62Z" fill="white" stroke="#263238" stroke-miterlimit="10"/>
<path d="M230.9 428.01L212.9 419.58L215.26 418.82C215.69 418.68 216.15 418.59 216.64 418.55C217.13 418.51 217.68 418.53 218.27 418.61C218.87 418.69 219.53 418.85 220.26 419.09C220.99 419.32 221.8 419.65 222.71 420.08C223.44 420.42 224.01 420.73 224.42 421.01C224.83 421.29 225.09 421.53 225.19 421.74C225.29 421.95 225.24 422.13 225.03 422.27C225.53 422.2 226.09 422.22 226.72 422.31C227.35 422.41 228.02 422.58 228.75 422.82C229.48 423.06 230.27 423.39 231.13 423.79C231.99 424.19 232.69 424.57 233.24 424.91C233.79 425.26 234.16 425.57 234.38 425.84C234.59 426.12 234.64 426.36 234.53 426.57C234.42 426.78 234.14 426.96 233.69 427.11L230.93 428L230.9 428.01ZM222.01 422.46L222.6 422.27C222.95 422.16 223.12 422.03 223.12 421.87C223.12 421.72 222.95 421.54 222.63 421.33C222.31 421.12 221.84 420.87 221.23 420.59C220.59 420.29 220.04 420.08 219.58 419.95C219.12 419.82 218.71 419.77 218.35 419.78C217.99 419.8 217.64 419.86 217.28 419.97L216.94 420.08L222.01 422.45V422.46ZM230.34 426.36L231 426.15C231.53 425.98 231.65 425.75 231.36 425.46C231.07 425.17 230.42 424.79 229.41 424.32C228.68 423.98 228.05 423.72 227.51 423.54C226.97 423.36 226.48 423.25 226.05 423.21C225.62 423.17 225.23 423.21 224.88 423.32L224.28 423.51L230.35 426.35L230.34 426.36Z" fill="black"/>
<path d="M237.54 425.86L219.54 417.43L221.27 416.87L239.27 425.3L237.54 425.86Z" fill="black"/>
<path d="M240.75 424.83L222.75 416.4L224.5 415.83L240.24 423.2L242.56 422.45L244.83 423.51L240.76 424.83H240.75Z" fill="black"/>
<path d="M245.69 423.23L227.69 414.8L229.44 414.23L245.18 421.6L247.5 420.85L249.77 421.91L245.7 423.23H245.69Z" fill="black"/>
<path d="M253.29 420.97C252.71 421.16 252.02 421.21 251.21 421.14C250.4 421.07 249.49 420.87 248.48 420.55C247.47 420.23 246.36 419.8 245.15 419.25L246.1 418.5C246.81 418.82 247.47 419.09 248.08 419.32C248.69 419.55 249.21 419.7 249.66 419.79C250.1 419.88 250.45 419.88 250.7 419.79C250.98 419.7 251.03 419.56 250.83 419.37C250.63 419.18 250.28 418.97 249.8 418.75C249.01 418.38 248.28 418.11 247.58 417.94C246.89 417.77 246.13 417.61 245.31 417.48L242.1 416.93C241.21 416.78 240.33 416.58 239.46 416.33C238.59 416.08 237.65 415.72 236.66 415.26C235.24 414.59 234.36 414.01 234.03 413.51C233.7 413.01 233.92 412.63 234.69 412.38C235.14 412.23 235.65 412.17 236.2 412.2C236.76 412.22 237.36 412.32 237.99 412.47C238.63 412.63 239.28 412.83 239.95 413.08C240.62 413.33 241.3 413.6 241.97 413.9L240.97 414.61C240.39 414.35 239.85 414.13 239.36 413.93C238.86 413.74 238.43 413.61 238.04 413.53C237.66 413.45 237.34 413.46 237.09 413.53C236.83 413.61 236.79 413.75 236.97 413.95C237.15 414.14 237.48 414.35 237.95 414.57C238.56 414.85 239.12 415.07 239.65 415.21C240.18 415.35 240.77 415.48 241.44 415.59L244.61 416.13C245.63 416.29 246.69 416.53 247.81 416.83C248.93 417.13 250.08 417.56 251.26 418.11C252.12 418.51 252.78 418.9 253.25 419.28C253.72 419.66 253.96 419.99 253.98 420.29C254 420.58 253.77 420.81 253.29 420.96V420.97Z" fill="black"/>
<path d="M271.11 419.87L225.93 436.04L252.32 447.37L300.13 428.01" stroke="#263238" stroke-miterlimit="10"/>
<path d="M232.16 433.6L259.47 444.45" stroke="#263238" stroke-miterlimit="10"/>
<path d="M238.83 431.24L266.67 441.96" stroke="#263238" stroke-miterlimit="10"/>
<path d="M232.13 438.99L277.03 422.35" stroke="#263238" stroke-miterlimit="10"/>
<path d="M273.88 419.86L297.43 426.72" stroke="#263238" stroke-miterlimit="10"/>
<path d="M266.69 422.19L294.37 430.29" stroke="#263238" stroke-miterlimit="10"/>
<path d="M193.36 408L139.69 428.18L216.94 454.02L266.47 424.17L193.36 408Z" fill="white" stroke="#263238" stroke-miterlimit="10"/>
<path d="M194.04 419.34L206 413.67L256.03 425.23L216.6 447.48L192.68 440.97" stroke="#263238" stroke-miterlimit="10"/>
<path d="M200.58 416.19L247.97 428.37" stroke="#263238" stroke-miterlimit="10"/>
<path d="M245.48 423.33L207.8 444.75" stroke="#263238" stroke-miterlimit="10"/>
<path d="M327.5 405.847L266.946 419.683L336.437 452.613L401.995 427.326L327.5 405.847Z" fill="white" stroke="#263238" stroke-miterlimit="10"/>
<path d="M315.798 425.887L298.066 416.907L300.448 416.22C300.882 416.094 301.345 416.018 301.836 415.993C302.327 415.968 302.876 416.005 303.463 416.103C304.06 416.201 304.715 416.381 305.437 416.644C306.16 416.896 306.959 417.251 307.856 417.709C308.575 418.071 309.135 418.398 309.536 418.691C309.937 418.983 310.19 419.231 310.283 419.444C310.377 419.657 310.321 419.835 310.107 419.969C310.609 419.914 311.168 419.951 311.795 420.061C312.422 420.18 313.086 420.371 313.809 420.633C314.531 420.895 315.31 421.249 316.158 421.676C317.005 422.102 317.693 422.503 318.232 422.86C318.771 423.227 319.132 423.548 319.343 423.825C319.544 424.111 319.587 424.352 319.471 424.559C319.354 424.765 319.069 424.937 318.614 425.073L315.828 425.877L315.798 425.887ZM307.083 420.066L307.678 419.894C308.032 419.795 308.206 419.67 308.21 419.51C308.215 419.36 308.051 419.175 307.737 418.956C307.424 418.736 306.962 418.472 306.361 418.173C305.73 417.853 305.187 417.627 304.731 417.483C304.275 417.338 303.867 417.276 303.507 417.275C303.146 417.284 302.795 417.333 302.432 417.432L302.088 417.531L307.083 420.056L307.083 420.066ZM315.289 424.22L315.955 424.031C316.49 423.877 316.617 423.651 316.336 423.352C316.055 423.053 315.417 422.653 314.422 422.153C313.703 421.79 313.081 421.511 312.547 421.315C312.013 421.118 311.526 420.993 311.098 420.94C310.669 420.887 310.278 420.915 309.925 421.014L309.32 421.185L315.299 424.21L315.289 424.22Z" fill="black"/>
<path d="M322.501 423.942L304.769 414.963L306.515 414.456L324.248 423.435L322.501 423.942Z" fill="black"/>
<path d="M325.741 423.011L308.009 414.032L309.776 413.516L325.282 421.366L327.624 420.688L329.86 421.817L325.751 423.011L325.741 423.011Z" fill="black"/>
<path d="M330.728 421.564L312.996 412.584L314.762 412.068L330.268 419.919L332.61 419.24L334.847 420.37L330.738 421.564L330.728 421.564Z" fill="black"/>
<path d="M338.394 419.538C337.808 419.71 337.117 419.739 336.31 419.644C335.502 419.549 334.599 419.321 333.599 418.97C332.6 418.619 331.503 418.155 330.311 417.568L331.283 416.848C331.983 417.19 332.635 417.48 333.237 417.728C333.84 417.977 334.355 418.143 334.802 418.247C335.239 418.35 335.589 418.361 335.841 418.279C336.124 418.197 336.178 418.059 335.984 417.863C335.79 417.667 335.447 417.446 334.974 417.212C334.196 416.817 333.474 416.525 332.78 416.334C332.095 416.143 331.341 415.959 330.525 415.804L327.333 415.156C326.448 414.978 325.575 414.752 324.713 414.475C323.851 414.198 322.923 413.81 321.947 413.319C320.549 412.606 319.687 411.999 319.372 411.489C319.058 410.98 319.289 410.606 320.067 410.38C320.521 410.244 321.033 410.2 321.582 410.247C322.141 410.284 322.737 410.402 323.362 410.572C323.997 410.751 324.641 410.971 325.303 411.242C325.965 411.512 326.636 411.803 327.297 412.123L326.275 412.802C325.704 412.524 325.171 412.288 324.687 412.073C324.193 411.868 323.767 411.725 323.38 411.633C323.002 411.541 322.682 411.541 322.43 411.603C322.168 411.675 322.124 411.814 322.297 412.02C322.472 412.215 322.795 412.435 323.258 412.669C323.859 412.968 324.412 413.205 324.937 413.361C325.463 413.518 326.049 413.666 326.715 413.796L329.867 414.433C330.881 414.625 331.934 414.897 333.044 415.231C334.154 415.566 335.29 416.031 336.453 416.617C337.3 417.043 337.948 417.453 338.406 417.847C338.864 418.242 339.094 418.579 339.105 418.879C339.116 419.17 338.879 419.393 338.394 419.528L338.394 419.538Z" fill="black"/>
<path d="M356.239 418.986L310.584 433.76L336.613 445.896L384.996 428.014" stroke="#263238" stroke-miterlimit="10"/>
<path d="M316.886 431.513L343.85 443.197" stroke="#263238" stroke-miterlimit="10"/>
<path d="M323.625 429.359L351.123 440.929" stroke="#263238" stroke-miterlimit="10"/>
<path d="M316.69 436.899L362.08 421.647" stroke="#263238" stroke-miterlimit="10"/>
<path d="M359.008 419.061L382.336 426.641" stroke="#263238" stroke-miterlimit="10"/>
<path d="M351.75 421.169L379.168 430.116" stroke="#263238" stroke-miterlimit="10"/>
</svg>
